<svg width="491" height="523" viewBox="0 0 491 523" fill="none" xmlns="http://www.w3.org/2000/svg">
<path d="M55.5441 26.1772L42.4555 87.0676H69.012L55.9234 26.1772H55.5441ZM3 138.094L38.8514 2.65566H72.6161L108.468 138.094H80.014L73.7543 109.451H37.7132L31.4535 138.094H3Z" fill="#FF0B10"/>
<path d="M204.197 42.8699H178.02C178.02 33.006 173.657 20.1071 162.465 20.1071C149.377 20.1071 143.876 33.5751 143.876 67.5296C143.876 100.156 146.911 120.643 162.655 120.643C169.294 120.643 179.537 113.624 179.537 99.018V85.1707H161.517V65.0636H205.715V138.094H185.607V125.575H185.228C178.589 136.197 169.674 140.75 156.775 140.75C123.2 140.75 116.56 115.711 116.56 68.8574C116.56 23.3318 127.183 0 162.086 0C191.867 0 204.197 15.3649 204.197 42.8699Z" fill="#FF0B10"/>
<path d="M266.352 26.1772L253.263 87.0676H279.82L266.731 26.1772H266.352ZM213.808 138.094L249.659 2.65566H283.424L319.275 138.094H290.822L284.562 109.451H248.521L242.261 138.094H213.808Z" fill="#FF0B10"/>
<path d="M311.114 2.65566H397.612V25.0391H368.021V138.094H340.706V25.0391H311.114V2.65566Z" fill="#FF0B10"/>
<path d="M409.462 2.65566H485.148V25.0391H436.777V56.9069H482.303V79.2903H436.777V115.711H487.045V138.094H409.462V2.65566Z" fill="#FF0B10"/>
<path d="M27.3153 267.954V308.737H37.9379C51.0265 308.737 59.942 303.995 59.942 288.25C59.942 272.506 51.0265 267.954 39.0761 267.954H27.3153ZM27.3153 213.513V248.985H35.0926C50.2678 248.985 56.9069 244.053 56.9069 231.154C56.9069 218.255 50.8368 213.513 37.1792 213.513H27.3153ZM0 328.844V193.405H45.7152C68.0986 193.405 84.2222 201.752 84.2222 227.739C84.2222 242.345 77.3934 253.537 63.7357 257.331V257.71C78.9109 259.797 88.3954 270.989 88.3954 289.199C88.3954 310.444 77.9625 328.844 46.0946 328.844H0Z" fill="#FF0B10"/>
<path d="M105.404 193.405H181.09V215.789H132.719V247.657H178.245V270.04H132.719V306.461H182.987V328.844H105.404V193.405Z" fill="#FF0B10"/>
<path d="M239.789 216.927L226.7 277.817H253.257L240.168 216.927H239.789ZM187.244 328.844L223.096 193.405H256.861L292.712 328.844H264.259L257.999 300.201H221.958L215.698 328.844H187.244Z" fill="#FF0B10"/>
<path d="M387.303 239.121H359.988C359.988 219.393 356.005 210.857 343.675 210.857C330.017 210.857 326.603 224.515 326.603 263.022C326.603 303.995 332.293 311.392 344.054 311.392C353.728 311.392 361.126 306.461 361.126 277.059H388.442C388.442 306.461 381.233 331.5 345.382 331.5C304.409 331.5 299.287 302.287 299.287 261.125C299.287 219.962 304.409 190.75 345.382 190.75C384.458 190.75 387.303 219.393 387.303 239.121Z" fill="#FF0B10"/>
<path d="M404.017 328.844V193.405H431.332V245.191H463.2V193.405H490.515V328.844H463.2V268.712H431.332V328.844H404.017Z" fill="#FF0B10"/>
<path d="M142.016 429.87H114.701C114.701 410.143 110.717 401.607 98.3874 401.607C84.7297 401.607 81.3153 415.264 81.3153 453.771C81.3153 494.744 87.006 502.142 98.7668 502.142C108.441 502.142 115.839 497.21 115.839 467.808H143.154C143.154 497.21 135.946 522.249 100.095 522.249C59.1216 522.249 54 493.037 54 451.874C54 410.712 59.1216 381.5 100.095 381.5C139.171 381.5 142.016 410.143 142.016 429.87Z" fill="#FF0B10"/>
<path d="M234.416 519.594H158.729V384.155H186.045V497.21H234.416V519.594Z" fill="#FF0B10"/>
<path d="M244.828 384.155H272.143V478.621C272.143 492.089 275.178 502.142 288.077 502.142C300.976 502.142 304.011 492.089 304.011 478.621V384.155H331.326V478.621C331.326 512.955 310.271 522.249 288.077 522.249C265.883 522.249 244.828 514.851 244.828 478.621V384.155Z" fill="#FF0B10"/>
<path d="M375.92 458.703V499.487H386.542C399.631 499.487 408.546 494.744 408.546 479C408.546 463.256 399.631 458.703 387.681 458.703H375.92ZM375.92 404.262V439.734H383.697C398.872 439.734 405.511 434.802 405.511 421.903C405.511 409.005 399.441 404.262 385.784 404.262H375.92ZM348.604 519.594V384.155H394.32C416.703 384.155 432.827 392.502 432.827 418.489C432.827 433.095 425.998 444.287 412.34 448.081V448.46C427.515 450.547 437 461.738 437 479.949C437 501.194 426.567 519.594 394.699 519.594H348.604Z" fill="#FF0B10"/>
</svg>
