<svg width="1222" height="116" viewBox="0 0 1222 116" fill="none" xmlns="http://www.w3.org/2000/svg">
<path d="M43.4283 21.5741L32.6104 71.7574H54.5597L43.7419 21.5741H43.4283ZM0 113.811L29.6316 2.18868H57.5386L87.1702 113.811H63.653L58.4793 90.2049H28.6909L23.5171 113.811H0Z" fill="#FF0B10"/>
<path d="M166.292 35.3315H144.656C144.656 27.2022 141.05 16.5714 131.8 16.5714C120.982 16.5714 116.435 27.6712 116.435 55.655C116.435 82.5445 118.944 99.4286 131.957 99.4286C137.444 99.4286 145.91 93.6442 145.91 81.6065V70.1941H131.016V53.6226H167.546V113.811H150.927V103.493H150.614C145.126 112.248 137.758 116 127.097 116C99.3464 116 93.859 95.3639 93.859 56.7493C93.859 19.2291 102.639 0 131.486 0C156.101 0 166.292 12.6631 166.292 35.3315Z" fill="#FF0B10"/>
<path d="M217.663 21.5741L206.845 71.7574H228.795L217.977 21.5741H217.663ZM174.235 113.811L203.867 2.18868H231.774L261.405 113.811H237.888L232.714 90.2049H202.926L197.752 113.811H174.235Z" fill="#FF0B10"/>
<path d="M254.66 2.18868H326.152V20.6361H301.694V113.811H279.118V20.6361H254.66V2.18868Z" fill="#FF0B10"/>
<path d="M335.946 2.18868H398.501V20.6361H358.522V46.9003H396.15V65.3477H358.522V95.3639H400.069V113.811H335.946V2.18868Z" fill="#FF0B10"/>
<path d="M471.668 63.628V97.2399H480.448C491.265 97.2399 498.634 93.3315 498.634 80.3558C498.634 67.3801 491.265 63.628 481.388 63.628H471.668ZM471.668 18.7601V47.9946H478.096C490.638 47.9946 496.126 43.9299 496.126 33.2992C496.126 22.6685 491.109 18.7601 479.82 18.7601H471.668ZM449.091 113.811V2.18868H486.876C505.376 2.18868 518.702 9.06739 518.702 30.4852C518.702 42.5229 513.058 51.7466 501.77 54.8733V55.186C514.312 56.9057 522.151 66.1294 522.151 81.1375C522.151 98.6469 513.528 113.811 487.189 113.811H449.091Z" fill="#FF0B10"/>
<path d="M536.209 2.18868H598.764V20.6361H558.785V46.9003H596.413V65.3477H558.785V95.3639H600.332V113.811H536.209V2.18868Z" fill="#FF0B10"/>
<path d="M647.279 21.5741L636.462 71.7574H658.411L647.593 21.5741H647.279ZM603.851 113.811L633.483 2.18868H661.39L691.021 113.811H667.504L662.33 90.2049H632.542L627.368 113.811H603.851Z" fill="#FF0B10"/>
<path d="M769.202 39.8652H746.626C746.626 23.6065 743.333 16.5714 733.143 16.5714C721.854 16.5714 719.032 27.8275 719.032 59.5633C719.032 93.3315 723.736 99.4286 733.456 99.4286C741.452 99.4286 747.567 95.3639 747.567 71.1321H770.143C770.143 95.3639 764.185 116 734.554 116C700.689 116 696.456 91.9245 696.456 58C696.456 24.0755 700.689 0 734.554 0C766.851 0 769.202 23.6065 769.202 39.8652Z" fill="#FF0B10"/>
<path d="M783.016 113.811V2.18868H805.593V44.8679H831.932V2.18868H854.508V113.811H831.932V64.2534H805.593V113.811H783.016Z" fill="#FF0B10"/>
<path d="M978.192 39.8652H955.616C955.616 23.6065 952.323 16.5714 942.133 16.5714C930.844 16.5714 928.023 27.8275 928.023 59.5633C928.023 93.3315 932.726 99.4286 942.446 99.4286C950.442 99.4286 956.557 95.3639 956.557 71.1321H979.133C979.133 95.3639 973.175 116 943.544 116C909.679 116 905.446 91.9245 905.446 58C905.446 24.0755 909.679 0 943.544 0C975.841 0 978.192 23.6065 978.192 39.8652Z" fill="#FF0B10"/>
<path d="M1054.56 113.811H992.006V2.18868H1014.58V95.3639H1054.56V113.811Z" fill="#FF0B10"/>
<path d="M1063.17 2.18868H1085.74V80.0431C1085.74 91.1429 1088.25 99.4286 1098.91 99.4286C1109.57 99.4286 1112.08 91.1429 1112.08 80.0431V2.18868H1134.66V80.0431C1134.66 108.34 1117.26 116 1098.91 116C1080.57 116 1063.17 109.903 1063.17 80.0431V2.18868Z" fill="#FF0B10"/>
<path d="M1171.52 63.628V97.2399H1180.3C1191.11 97.2399 1198.48 93.3315 1198.48 80.3558C1198.48 67.3801 1191.11 63.628 1181.24 63.628H1171.52ZM1171.52 18.7601V47.9946H1177.94C1190.49 47.9946 1195.97 43.9299 1195.97 33.2992C1195.97 22.6685 1190.96 18.7601 1179.67 18.7601H1171.52ZM1148.94 113.811V2.18868H1186.72C1205.22 2.18868 1218.55 9.06739 1218.55 30.4852C1218.55 42.5229 1212.91 51.7466 1201.62 54.8733V55.186C1214.16 56.9057 1222 66.1294 1222 81.1375C1222 98.6469 1213.38 113.811 1187.04 113.811H1148.94Z" fill="#FF0B10"/>
</svg>
